<svg xmlns="http://www.w3.org/2000/svg" width="16.734" height="14.833" viewBox="0 0 16.734 14.833">
  <g id="Group_2434" data-name="Group 2434" transform="translate(-247.097 -779.106)">
    <path id="Path_805" data-name="Path 805" d="M650.853,756.248H638.5a2.19,2.19,0,0,1-2.188-2.188v-7.322a2.19,2.19,0,0,1,2.188-2.188h12.358a2.19,2.19,0,0,1,2.187,2.188v7.322A2.19,2.19,0,0,1,650.853,756.248ZM638.5,745.8a.938.938,0,0,0-.937.937v7.322a.938.938,0,0,0,.937.937h12.358a.938.938,0,0,0,.936-.937v-7.322a.938.938,0,0,0-.936-.937Z" transform="translate(-389.21 37.691)" fill="#e91111"/>
    <path id="Path_806" data-name="Path 806" d="M649.456,754.962H648.4V743.575a1.522,1.522,0,0,0-1.521-1.521h-3.319a1.523,1.523,0,0,0-1.521,1.521v11.387h-1.054V743.575A2.578,2.578,0,0,1,643.562,741h3.319a2.578,2.578,0,0,1,2.575,2.575Z" transform="translate(-389.758 38.106)" fill="#e91111"/>
  </g>
</svg>
