<svg xmlns="http://www.w3.org/2000/svg" width="18.926" height="21.31" viewBox="0 0 18.926 21.31">
  <g id="Group_2432" data-name="Group 2432" transform="translate(-121.59 -774.566)">
    <path id="Path_808" data-name="Path 808" d="M-2124.852,318.82l.145-.052q2.185-.818,4.369-1.638a.637.637,0,0,1,.394-.027,8.485,8.485,0,0,0,3.913.067,8.492,8.492,0,0,0,6.614-7.5,8.486,8.486,0,0,0-.682-4.166,8.481,8.481,0,0,0-9.13-4.944,8.169,8.169,0,0,0-4.677,2.462,8.245,8.245,0,0,0-2.2,7.7,8.173,8.173,0,0,0,2.854,4.7.5.5,0,0,1,.109.724l-.52.814Z" transform="translate(2248.9 475.133)" fill="none" stroke="#e91111" stroke-width="2"/>
    <path id="Path_814" data-name="Path 814" d="M8.725,6.467c-1-.259-1.316-.527-1.316-.943,0-.478.443-.812,1.185-.812.781,0,1.071.373,1.1.922h.97A1.749,1.749,0,0,0,9.251,3.961V3H7.935v.948A1.712,1.712,0,0,0,6.4,5.532c0,1.014.838,1.518,2.062,1.812,1.1.263,1.316.649,1.316,1.058,0,.3-.215.785-1.185.785-.9,0-1.259-.4-1.308-.922H6.32A1.838,1.838,0,0,0,7.935,9.946V10.9H9.251V9.955c.856-.162,1.536-.658,1.536-1.558C10.787,7.151,9.721,6.726,8.725,6.467Z" transform="translate(122.559 777.047)" fill="#e91111"/>
  </g>
</svg>
