<svg id="date_range_black_24dp" xmlns="http://www.w3.org/2000/svg" width="19.604" height="19.604" viewBox="0 0 19.604 19.604">
  <path id="Path_1779" data-name="Path 1779" d="M0,0H19.6V19.6H0Z" fill="none"/>
  <path id="Path_1780" data-name="Path 1780" d="M6.267,9.351H7.9v1.634H6.267ZM17.7,5.267V16.7a1.638,1.638,0,0,1-1.634,1.634H4.634A1.633,1.633,0,0,1,3,16.7L3.008,5.267A1.626,1.626,0,0,1,4.634,3.634H5.45V2H7.084V3.634h6.535V2h1.634V3.634h.817A1.638,1.638,0,0,1,17.7,5.267ZM4.634,6.9H16.069V5.267H4.634Zm11.436,9.8V8.535H4.634V16.7ZM12.8,10.985h1.634V9.351H12.8Zm-3.267,0h1.634V9.351H9.535Z" transform="translate(-0.55 -0.366)" fill="#fff"/>
</svg>
