<svg xmlns="http://www.w3.org/2000/svg" width="209.978" height="120.238" viewBox="0 0 209.978 120.238">
  <g id="Group_2747" data-name="Group 2747" transform="translate(1233.828 -1616.776)">
    <path id="Path_1882" data-name="Path 1882" d="M-1057.547,1733.656h1.14l50.794,0c.385,0,.771,0,1.156.014a1.625,1.625,0,0,1,1.566,1.637,1.65,1.65,0,0,1-1.617,1.7c-.352.026-.706.009-1.06.009h-171.465a7.961,7.961,0,0,1-.963-.017,1.669,1.669,0,0,1-1.271-2.526,1.538,1.538,0,0,1,1.254-.787c.416-.031.835-.025,1.252-.025q55.034,0,110.069,0h1.429c.062-.251-.106-.23-.208-.241a69.253,69.253,0,0,1-21.623-6.31,104.342,104.342,0,0,1-20.729-12.9,156.188,156.188,0,0,1-16.554-15.287,167.227,167.227,0,0,1-11.906-13.774,90.045,90.045,0,0,1-9.266-14.628,55.119,55.119,0,0,1-4.8-13.785,42.911,42.911,0,0,1-.706-4.859c-.034-.414-.092-.825-.137-1.21-.275-.141-.388.072-.531.161a1.427,1.427,0,0,1-2.151-1.219c-.023-.416-.008-.835-.009-1.253s0-.828,0-1.286a4,4,0,0,0-.59-.108c-.578-.013-1.156,0-1.734-.012a2.684,2.684,0,0,1-.755-.111,1.43,1.43,0,0,1-.958-1.5,1.393,1.393,0,0,1,1.257-1.257c.575-.047,1.155-.02,1.733-.032.314-.007.627-.027.912-.04a2.228,2.228,0,0,0,.131-1.106c.017-.545-.03-1.1.027-1.636a1.346,1.346,0,0,1,1.041-1.246,1.349,1.349,0,0,1,1.468.472,5.7,5.7,0,0,1,.326.47c.255-.038.177-.24.194-.37a29.15,29.15,0,0,1,3.221-10.33,31.934,31.934,0,0,1,3.5-5.066,65.442,65.442,0,0,1,4.667-5,11.656,11.656,0,0,1,7.865-3.4,11.178,11.178,0,0,1,8.355,3.082c.141.131.274.271.411.407l16.5,16.486c.2.2.412.406.608.618a11.447,11.447,0,0,1,2.594,11.971,11.335,11.335,0,0,1-2.888,4.612q-2.249,2.249-4.5,4.494c-.182.181-.369.359-.539.551a4.14,4.14,0,0,0-.624,4.669c.043.086.091.17.139.253a95.071,95.071,0,0,0,7.531,11.294,71.172,71.172,0,0,0,16.8,15.331c1.879,1.232,3.814,2.379,5.726,3.561a4.242,4.242,0,0,0,1.986.675,4.069,4.069,0,0,0,3.237-1.2c.8-.789,1.592-1.588,2.387-2.383.864-.863,1.723-1.73,2.593-2.587a11.707,11.707,0,0,1,6.483-3.351,11.346,11.346,0,0,1,9.233,2.346,12.959,12.959,0,0,1,1.069.971q8.422,8.412,16.838,16.829a11.141,11.141,0,0,1,3.053,5.054,11.618,11.618,0,0,1-2.766,11.452,49.82,49.82,0,0,1-7.032,6.287,27.249,27.249,0,0,1-11.671,4.984c-.5.088-1,.181-1.5.272Zm-88.1-86.479c.076,1.249.147,2.5.229,3.747a38.559,38.559,0,0,0,1.1,6.64,53.314,53.314,0,0,0,5.031,12.672,92.983,92.983,0,0,0,9.454,13.931,182.848,182.848,0,0,0,12.316,13.667,135.916,135.916,0,0,0,15.375,13.566,95.858,95.858,0,0,0,18.139,10.865,62.571,62.571,0,0,0,19.246,5.51,26.294,26.294,0,0,0,8.049-.216,21.994,21.994,0,0,0,7.567-2.972,42.215,42.215,0,0,0,7.739-6.63,6.048,6.048,0,0,0-.226-8.511c-.094-.088-.182-.182-.272-.272l-16.286-16.286c-.182-.182-.36-.367-.549-.542a5.807,5.807,0,0,0-5.449-1.41,6.085,6.085,0,0,0-3,1.641c-.509.49-1,1-1.5,1.5-1.2,1.2-2.4,2.418-3.616,3.607a9.544,9.544,0,0,1-5.906,2.748,9.884,9.884,0,0,1-6.089-1.4c-2.684-1.583-5.333-3.218-7.882-5.012a76.978,76.978,0,0,1-19.493-19.673c-1.684-2.468-3.257-5.005-4.761-7.586a9.725,9.725,0,0,1-1.074-7.25,9.377,9.377,0,0,1,2.6-4.646q2.248-2.25,4.5-4.5c.227-.227.458-.452.673-.69a6.081,6.081,0,0,0-.174-8.519c-.092-.089-.181-.182-.272-.273q-8.177-8.177-16.355-16.353c-.25-.25-.5-.5-.766-.733a5.6,5.6,0,0,0-3.908-1.375,6.136,6.136,0,0,0-4.246,1.8,57.266,57.266,0,0,0-5.165,5.714,21.438,21.438,0,0,0-4.225,9.289A48.1,48.1,0,0,0-1145.651,1647.177Z" transform="translate(-36.138)" fill="#fff"/>
    <path id="Path_1883" data-name="Path 1883" d="M-905.308,1736.588h32.156c.321,0,.643-.012.963.008a2.813,2.813,0,0,1,2.646,2.794,2.812,2.812,0,0,1-2.654,2.786c-.32.02-.642.007-.963.007q-15.558,0-31.117,0c-.343,0-.687.017-1.018.026-.06.268.124.324.239.412,1.127.853,2.258,1.7,3.387,2.548a7.3,7.3,0,0,1,.678.54,2.778,2.778,0,0,1,.308,3.685,2.794,2.794,0,0,1-3.621.755,6.769,6.769,0,0,1-.713-.492q-5.2-3.9-10.4-7.8a5.9,5.9,0,0,1-.526-.421,2.77,2.77,0,0,1,.019-4.106,9.5,9.5,0,0,1,.757-.594q5.046-3.786,10.094-7.571a7.929,7.929,0,0,1,.705-.5,2.791,2.791,0,0,1,3.7.739,2.753,2.753,0,0,1-.415,3.741c-.532.462-1.118.863-1.682,1.288q-1.3.982-2.609,1.96Z" transform="translate(-210.896 -74.171)" fill="#fff"/>
    <path id="Path_1884" data-name="Path 1884" d="M-881.018,1678.274c-.273-.214-.542-.432-.819-.641q-1.615-1.217-3.235-2.429a2.751,2.751,0,0,1-1.186-2.3,2.777,2.777,0,0,1,4.051-2.457,5.355,5.355,0,0,1,.718.483q5.242,3.926,10.484,7.853a3.053,3.053,0,0,1,1.377,2,2.731,2.731,0,0,1-.79,2.464,4.042,4.042,0,0,1-.443.37q-5.389,4.05-10.78,8.1a2.932,2.932,0,0,1-1.867.655,2.76,2.76,0,0,1-2.557-1.722,2.775,2.775,0,0,1,.611-3.026,6.4,6.4,0,0,1,.671-.546q1.653-1.247,3.31-2.489c.15-.113.291-.239.422-.348-.049-.213-.192-.187-.311-.189-.289-.007-.578,0-.867,0H-913.25c-.289,0-.578.008-.867,0a2.81,2.81,0,0,1-2.75-2.788,2.842,2.842,0,0,1,2.664-2.786c.287-.021.578-.008.867-.008h32.256Z" transform="translate(-210.88 -35.498)" fill="#fff"/>
    <path id="Path_1885" data-name="Path 1885" d="M-689.566,1902.824c-.785,0-1.456,0-2.128,0a3.749,3.749,0,0,1-.766-.048,1.409,1.409,0,0,1-1.127-1.562,1.371,1.371,0,0,1,1.344-1.26c.544-.029,1.091-.005,1.637-.012.315,0,.63-.022,1-.036a5.431,5.431,0,0,0,.075-.59c.009-.674-.012-1.348.011-2.022a1.358,1.358,0,0,1,1.271-1.427,1.4,1.4,0,0,1,1.549,1.256,6.145,6.145,0,0,1,.032.865c.007.606.008,1.213.011,1.865a7.052,7.052,0,0,0,.7.087c.674.013,1.349-.015,2.022.019a1.3,1.3,0,0,1,1.211.943,1.368,1.368,0,0,1-.287,1.435,1.416,1.416,0,0,1-1.112.487c-.61,0-1.22,0-1.83.005-.188,0-.377.021-.619.035a4.087,4.087,0,0,0-.089.56c-.012.577.008,1.156-.013,1.733a2.834,2.834,0,0,1-.137.846,1.387,1.387,0,0,1-1.543.88,1.378,1.378,0,0,1-1.154-1.245c-.039-.543-.011-1.091-.019-1.636C-689.536,1903.652-689.551,1903.3-689.566,1902.824Z" transform="translate(-359.429 -185.681)" fill="#fff"/>
    <path id="Path_1886" data-name="Path 1886" d="M-1227.439,1965.992q2.072,0,4.144,0a6.254,6.254,0,0,1,.769.028,1.606,1.606,0,0,1,1.462,1.627,1.657,1.657,0,0,1-1.426,1.677,4.445,4.445,0,0,1-.673.023q-4.287,0-8.575,0a4.233,4.233,0,0,1-.673-.025,1.659,1.659,0,0,1-1.414-1.687,1.611,1.611,0,0,1,1.475-1.616,6.312,6.312,0,0,1,.769-.026Q-1229.511,1965.99-1227.439,1965.992Z" transform="translate(0 -232.34)" fill="#fff"/>
    <path id="Path_1887" data-name="Path 1887" d="M-1172.9,1914.914a2.59,2.59,0,0,1,2.646-2.612,2.657,2.657,0,0,1,2.586,2.7,2.659,2.659,0,0,1-2.672,2.611A2.6,2.6,0,0,1-1172.9,1914.914Z" transform="translate(-40.534 -196.62)" fill="#fff"/>
    <path id="Path_1888" data-name="Path 1888" d="M-721.253,1692.036a2.6,2.6,0,0,1-2.638-2.624,2.655,2.655,0,0,1,2.624-2.653,2.661,2.661,0,0,1,2.641,2.639A2.617,2.617,0,0,1-721.253,1692.036Z" transform="translate(-339.271 -46.56)" fill="#fff"/>
    <path id="Path_1889" data-name="Path 1889" d="M-638.277,1969.332a13.438,13.438,0,0,1-1.537-.011,1.575,1.575,0,0,1-1.4-1.153,1.678,1.678,0,0,1,.553-1.82,1.423,1.423,0,0,1,.883-.334c.993-.014,1.989-.047,2.98,0a1.59,1.59,0,0,1,1.566,1.621,1.654,1.654,0,0,1-1.6,1.7c-.479.033-.962.006-1.443.006Z" transform="translate(-394.226 -232.339)" fill="#fff"/>
    <path id="Path_1890" data-name="Path 1890" d="M-614.6,1969.369a1.675,1.675,0,0,1-1.7-1.6,1.641,1.641,0,0,1,1.56-1.731A1.62,1.62,0,0,1-613,1967.67,1.659,1.659,0,0,1-614.6,1969.369Z" transform="translate(-410.848 -232.368)" fill="#fff"/>
  </g>
</svg>
