<svg version="1.2" xmlns="http://www.w3.org/2000/svg" viewBox="0 0 42 42" width="42" height="42"><style>.a{fill:none}.b{fill:#fff}</style><path class="a" d="m0 0h41.2v41.2h-41.2z"/><path fill-rule="evenodd" class="b" d="m36 10.3v24q0 0.7-0.2 1.3-0.3 0.6-0.8 1.1-0.5 0.5-1.1 0.8-0.6 0.2-1.3 0.2h-24q-0.7 0-1.3-0.2-0.7-0.3-1.2-0.8-0.4-0.5-0.7-1.1-0.3-0.6-0.3-1.3l0.1-24q0-0.7 0.2-1.3 0.3-0.6 0.8-1.1 0.4-0.5 1.1-0.8 0.6-0.2 1.3-0.2h1.7v-3.5h3.4v3.5h13.7v-3.5h3.5v3.5h1.7q0.7 0 1.3 0.2 0.6 0.3 1.1 0.8 0.5 0.5 0.8 1.1 0.2 0.6 0.2 1.3zm-3.4 24v-17.1h-24v17.1zm-24-20.6h24v-3.4h-24zm3.4 5.1h3.4v3.5h-3.4zm13.7 0h3.4v3.4h-3.4zm-6.8 0h3.4v3.4h-3.5z"/></svg>