<svg xmlns="http://www.w3.org/2000/svg" width="38.697" height="31.693" viewBox="0 0 38.697 31.693">
  <g id="Group_1915" transform="translate(380.097 -835.407)">
    <path id="Path_983" d="M-347.4,867.1h-25.8c-3.5-2.7-5.2-9.3-4.5-13.2.7-4,.9-8.3,5.2-10.2,4.6-2,4.7-9.9,11.2-8,1.2.4,3.2.8,3.2.8s2.9-.4,5.3-.8c5.4-.8,9,4.9,9.9,13,.8,5.7-2.1,11.6-4.5,18.4Z" fill="#dfedfd" fill-rule="evenodd"/>
    <path id="Path_984" d="M-361.8,850.8h0a1.028,1.028,0,0,0-1-1.1,1.853,1.853,0,0,0-.7.2.809.809,0,0,0-1.1.5.622.622,0,0,0-.6.4Z" fill="#fff" fill-rule="evenodd"/>
    <path id="Path_985" d="M-372.6,851.8h0a1.028,1.028,0,0,0-1-1.1,1.853,1.853,0,0,0-.7.2c-.1,0-.2-.1-.3-.1a.891.891,0,0,0-.8.5.622.622,0,0,0-.6.4Z" fill="#dfedfd" fill-rule="evenodd"/>
    <path id="Path_986" d="M-368.7,849.1h0a1.028,1.028,0,0,0-1-1.1,1.853,1.853,0,0,0-.7.2.809.809,0,0,0-1.1.5.622.622,0,0,0-.6.4Z" fill="#dfedfd" fill-rule="evenodd"/>
    <path id="Path_987" d="M-372.4,855.7h0a.736.736,0,0,0-.8-.8.764.764,0,0,0-.5.2h-.2a.675.675,0,0,0-.6.4c-.2,0-.4.1-.4.3Z" fill="#fdfdfd" fill-rule="evenodd"/>
    <path id="Path_988" d="M-347.8,850.9h0a1.028,1.028,0,0,0-1-1.1,1.072,1.072,0,0,0-.6.2.809.809,0,0,0-1.1.5.622.622,0,0,0-.6.4Z" fill="#fdfdfd" fill-rule="evenodd"/>
    <path id="Path_989" d="M-355.9,852.3c.2,0,.3-.1.3-.2v-.2c0-.1.1-.1.2-.1.5-.1.8-.2,1.5-.4h.3a.1.1,0,0,1,.1.1v2.7c0,.1.1.1.2.1a.367.367,0,0,0,.3-.1l.3-.2a.349.349,0,0,0,.2-.1,5.7,5.7,0,0,1,1.3.1l.3.2a.367.367,0,0,0,.3.1.349.349,0,0,0,.2-.1v-1.8a.1.1,0,0,1,.1-.1h.3c1.2.3,3.2,1.1,4,1.3a.349.349,0,0,1,.2.1V867h-28.8v-9.8a.1.1,0,0,1,.1-.1h2c.2,0,.3-.1.3-.2v-.3a.1.1,0,0,1,.1-.1h1.2c.2,0,.3-.1.3-.2v-1.9a.1.1,0,0,1,.1-.1l2.7-.8h.3a.1.1,0,0,1,.1.1v1.5a.1.1,0,0,0,.1.1h1a.1.1,0,0,0,.1-.1v-2.8a.1.1,0,0,1,.1-.1h2.5a.1.1,0,0,1,.1.1v1.1a.1.1,0,0,0,.1.1h.2c.3,0,4.8-.1,5.1-.1h.2a.1.1,0,0,0,.1-.1v-.9c0-.1.1-.2.3-.2h1.6Z" fill="#c3defc" fill-rule="evenodd"/>
    <path id="Path_990" d="M-375,866.6a33.065,33.065,0,0,1,9.4-1,33.065,33.065,0,0,1,9.4,1Z" fill="#b0d3fb" fill-rule="evenodd"/>
    <path id="Path_991" d="M-374.4,866.9a87.427,87.427,0,0,1,15.3-1,87.427,87.427,0,0,1,15.3,1Z" fill="#92c2f9" fill-rule="evenodd"/>
    <path id="Path_992" d="M-370,863.2c-.8-.2-1.5-1.4-1.5-2.8a4.672,4.672,0,0,1,.3-1.7.9.9,0,0,0,.1-.5v-.6a2.768,2.768,0,0,1,.3-1.3.9.9,0,0,0,.1-.5v-.5c0-1,.5-1.8,1-1.8s1,.8,1,1.8v.5a.9.9,0,0,0,.1.5,3.079,3.079,0,0,1,.3,1.3v.6a.9.9,0,0,0,.1.5,4.671,4.671,0,0,1,.3,1.7c0,1.5-.7,2.8-1.6,2.8Z" fill="#b0d3fb" fill-rule="evenodd"/>
    <path id="Path_993" d="M-369.9,855.8v1.9l-1.1-1.2,1.1,1.5v2.2l-1.5-1.7,1.5,2V867h.2v-6.5l1.4-2-1.4,1.7V858l1.1-1.5-1.1,1.2v-1.9l.6-.9-.6.6-.1-1.1-.1,1.1-.6-.6.6.9Z" fill="#92c2f9" fill-rule="evenodd"/>
    <path id="Path_994" d="M-346,863.2c-.8-.2-1.5-1.4-1.5-2.8a4.672,4.672,0,0,1,.3-1.7.9.9,0,0,0,.1-.5v-.6a2.768,2.768,0,0,1,.3-1.3.9.9,0,0,0,.1-.5v-.5c0-1,.5-1.8,1-1.8s1,.8,1,1.8v.5a.9.9,0,0,0,.1.5,3.079,3.079,0,0,1,.3,1.3v.6a.9.9,0,0,0,.1.5,4.671,4.671,0,0,1,.3,1.7c0,1.5-.7,2.8-1.6,2.8Z" fill="#b0d3fb" fill-rule="evenodd"/>
    <path id="Path_995" d="M-345.9,855.9v1.9l-1.1-1.2,1.1,1.5v2.2l-1.5-1.7,1.5,2v6.5h.2v-6.5l1.4-2-1.4,1.7v-2.2l1.1-1.5-1.1,1.2v-1.9l.6-.9-.6.6-.1-1.1-.1,1.1-.6-.6.6.9Z" fill="#92c2f9" fill-rule="evenodd"/>
    <path id="Path_996" d="M-356.2,851.1a.43.43,0,0,0-.4-.4h-.6c-.2,0-.4.1-.4.3l-.2,1.2h1.6Z" fill="#fff" fill-rule="evenodd"/>
    <path id="Path_997" d="M-357.3,850.7a.43.43,0,0,1,.4.4v1.2h.7v-1.2a.43.43,0,0,0-.4-.4Z" fill="#f2f2f2" fill-rule="evenodd"/>
    <path id="Path_998" d="M-360.7,866.7c10.7,0,19.3.1,19.3.2s-8.7.2-19.3.2-19.3-.1-19.3-.2S-371.3,866.7-360.7,866.7Z" fill="#8a8794" fill-rule="evenodd"/>
    <path id="Path_999" d="M-344.6,857.2a2.2,2.2,0,0,1-1.5-.6c-2.2-2.2-4.6-4.2-8.7-4.6h-.2a20.082,20.082,0,0,0-4.9,0,12.769,12.769,0,0,0-8.7,4.1,5.85,5.85,0,0,1-2.4,1.4c-.8.2-6.7.4-8,2.2a6.111,6.111,0,0,0-.7,1.4l-.3,1a2.289,2.289,0,0,0,.4,2.1,2.61,2.61,0,0,0,2,1h34.7a1.3,1.3,0,0,0,1.3-1.2v-4.4a2.827,2.827,0,0,0-.4-1.8,5.535,5.535,0,0,0-2.6-.6Z" fill="#232323" fill-rule="evenodd"/>
    <path id="Path_1000" d="M-341.5,859.9H-379a5.023,5.023,0,0,0-.5,1.3l-.3,1a2.289,2.289,0,0,0,.4,2.1,2.61,2.61,0,0,0,2,1h34.7a1.3,1.3,0,0,0,1.3-1.2h0l-.1-4.2Z" fill="#3a3a3a" fill-rule="evenodd"/>
    <path id="Path_1001" d="M-345.2,860.2h-32.7v.3h32.7v-.3Zm0-.7h-32.7v.5h32.7Z" fill="#f2f2f2" fill-rule="evenodd"/>
    <path id="Path_1002" d="M-380,863.1a.6.6,0,0,1,.1-.4l.3-1a3.694,3.694,0,0,1,.7-1.4c1.3-1.8,7.2-2,8-2.2a4.523,4.523,0,0,0,2.4-1.4,12.792,12.792,0,0,1,8.7-4.1,20.082,20.082,0,0,1,4.9,0h.2a13.2,13.2,0,0,1,8.7,4.6,2.035,2.035,0,0,0,1.5.6c.8.1,2,.1,2.6.7a2.827,2.827,0,0,1,.4,1.8v-.6a2.827,2.827,0,0,0-.4-1.8c-.6-.6-1.8-.6-2.6-.7a2.2,2.2,0,0,1-1.5-.6c-2.2-2.2-4.6-4.2-8.7-4.6h-.2a20.082,20.082,0,0,0-4.9,0,12.769,12.769,0,0,0-8.7,4.1,5.85,5.85,0,0,1-2.4,1.4c-.8.2-6.7.4-8,2.2a6.111,6.111,0,0,0-.7,1.4l-.3,1A3.751,3.751,0,0,0-380,863.1Z" fill-rule="evenodd"/>
    <path id="Path_1003" d="M-357.9,857h-.2v7.5h.2V857Z" fill="#212121" fill-rule="evenodd"/>
    <path id="Path_1004" d="M-348,857h-.2v7.5h.2V857Z" fill="#212121" fill-rule="evenodd"/>
    <path id="Path_1005" d="M-367.8,857h-.2v7.5h.2V857Z" fill="#212121" fill-rule="evenodd"/>
    <path id="Path_1006" d="M-351.6,864a.96.96,0,0,0,.9-.7,3.3,3.3,0,0,1,3.2-2.5,3.421,3.421,0,0,1,3.3,2.5.96.96,0,0,0,.9.7h1.8v.1a1.216,1.216,0,0,1-1.2,1.2h-34.9a2.234,2.234,0,0,1-1.8-1c-.1-.1-.1-.2-.2-.3h1.1a.96.96,0,0,0,.9-.7,3.3,3.3,0,0,1,3.2-2.5,3.421,3.421,0,0,1,3.3,2.5.96.96,0,0,0,.9.7Z" fill="#212121" fill-rule="evenodd"/>
    <path id="Path_1007" d="M-341.7,864.7a1.149,1.149,0,0,1-1.1.6h-34.9a2.2,2.2,0,0,1-1.5-.6Z" fill="#2b2b2b" fill-rule="evenodd"/>
    <path id="Path_1008" d="M-377.3,865.3a5.16,5.16,0,0,1-.2-1.1,3.116,3.116,0,0,1,3.1-3.1,3.116,3.116,0,0,1,3.1,3.1,3.594,3.594,0,0,1-.2,1.1Z" fill="#4b3f51" fill-rule="evenodd"/>
    <path id="Path_1009" d="M-344.2,860.2h1.9l.1.1a.1.1,0,0,1-.1.1h-1.9v-.2Zm0-.7h1.9a.438.438,0,0,1,.1.3c0,.2,0,.3-.1.3h-1.9v-.6Z" fill="#f2f2f2" fill-rule="evenodd"/>
    <path id="Path_1010" d="M-378.6,859.3a3.458,3.458,0,0,0-.7,1.2.367.367,0,0,0,.3.1h1.7a.645.645,0,0,0,.6-.6.645.645,0,0,0-.6-.6Z" fill="#f2f2f2" fill-rule="evenodd"/>
    <path id="Path_1011" d="M-378.3,859.3h-.3a3.458,3.458,0,0,0-.7,1.2.367.367,0,0,0,.3.1h.3a.367.367,0,0,1-.3-.1A3.458,3.458,0,0,1-378.3,859.3Z" fill="#fdfdfd" fill-rule="evenodd"/>
    <path id="Path_1012" d="M-377.2,859.3a.758.758,0,0,1,.2.4.645.645,0,0,1-.6.6h-1.7v.1a.367.367,0,0,0,.3.1h1.7a.645.645,0,0,0,.6-.6.634.634,0,0,0-.5-.6Z" fill="#cecece" fill-rule="evenodd"/>
    <path id="Path_1013" d="M-374.5,861.4a2.689,2.689,0,0,1,2.7,2.7,2.689,2.689,0,0,1-2.7,2.7,2.689,2.689,0,0,1-2.7-2.7A2.754,2.754,0,0,1-374.5,861.4Z" fill="#5d596b" fill-rule="evenodd"/>
    <path id="Path_1014" d="M-350.3,865.3a3.1,3.1,0,0,1,1.7-4,3.1,3.1,0,0,1,4,1.7,3.051,3.051,0,0,1,0,2.3Z" fill="#4b3f51" fill-rule="evenodd"/>
    <path id="Path_1015" d="M-347.5,861.4a2.689,2.689,0,0,1,2.7,2.7,2.689,2.689,0,0,1-2.7,2.7,2.689,2.689,0,0,1-2.7-2.7A2.754,2.754,0,0,1-347.5,861.4Z" fill="#5d596b" fill-rule="evenodd"/>
    <path id="Path_1016" d="M-350.2,863.9a2.79,2.79,0,0,0,3,2.5,2.866,2.866,0,0,0,2.5-2.5v.2a2.689,2.689,0,0,1-2.7,2.7,2.689,2.689,0,0,1-2.7-2.7C-350.2,864.1-350.2,864-350.2,863.9Z" fill="#4f4c5b" fill-rule="evenodd"/>
    <path id="Path_1017" d="M-350.2,864.4v-.2a2.689,2.689,0,0,1,2.7-2.7,2.689,2.689,0,0,1,2.7,2.7v.2a2.79,2.79,0,0,0-3-2.5A2.865,2.865,0,0,0-350.2,864.4Z" fill="#4f4c5b" fill-rule="evenodd"/>
    <path id="Path_1018" d="M-347.5,862.8a1.367,1.367,0,0,1,1.4,1.4,1.367,1.367,0,0,1-1.4,1.4,1.367,1.367,0,0,1-1.4-1.4A1.43,1.43,0,0,1-347.5,862.8Z" fill="#f2f2f2" fill-rule="evenodd"/>
    <path id="Path_1019" d="M-348.8,864.3v-.2a1.367,1.367,0,0,1,1.4-1.4,1.367,1.367,0,0,1,1.4,1.4v.2a1.342,1.342,0,0,0-1.5-1.2,1.308,1.308,0,0,0-1.3,1.2Z" fill="#cecece" fill-rule="evenodd"/>
    <path id="Path_1020" d="M-347.5,863.4a.789.789,0,0,1,.8.8.736.736,0,0,1-.8.8.736.736,0,0,1-.8-.8h0C-348.2,863.7-347.9,863.4-347.5,863.4Z" fill="#5d596b" fill-rule="evenodd"/>
    <path id="Path_1021" d="M-348.2,864.3c-.1-.4.3-.8.7-.9s.8.3.9.7v.2a.876.876,0,0,0-.9-.7A.684.684,0,0,0-348.2,864.3Z" fill="#4f4c5b" fill-rule="evenodd"/>
    <path id="Path_1022" d="M-377.2,863.9a2.721,2.721,0,0,0,2.7,2.5,2.721,2.721,0,0,0,2.7-2.5v.2a2.689,2.689,0,0,1-2.7,2.7,2.689,2.689,0,0,1-2.7-2.7Z" fill="#4f4c5b" fill-rule="evenodd"/>
    <path id="Path_1023" d="M-377.2,864.4v-.2a2.689,2.689,0,0,1,2.7-2.7,2.689,2.689,0,0,1,2.7,2.7v.2a2.721,2.721,0,0,0-2.7-2.5A2.721,2.721,0,0,0-377.2,864.4Z" fill="#4f4c5b" fill-rule="evenodd"/>
    <path id="Path_1024" d="M-374.5,862.8a1.367,1.367,0,0,1,1.4,1.4,1.367,1.367,0,0,1-1.4,1.4,1.367,1.367,0,0,1-1.4-1.4A1.43,1.43,0,0,1-374.5,862.8Z" fill="#f2f2f2" fill-rule="evenodd"/>
    <path id="Path_1025" d="M-375.9,864.3v-.2a1.367,1.367,0,0,1,1.4-1.4,1.367,1.367,0,0,1,1.4,1.4v.2a1.4,1.4,0,0,0-1.4-1.2A1.4,1.4,0,0,0-375.9,864.3Z" fill="#cecece" fill-rule="evenodd"/>
    <path id="Path_1026" d="M-374.5,863.4a.789.789,0,0,1,.8.8.736.736,0,0,1-.8.8.789.789,0,0,1-.8-.8A.789.789,0,0,1-374.5,863.4Z" fill="#5d596b" fill-rule="evenodd"/>
    <path id="Path_1027" d="M-375.3,864.3h0a.817.817,0,0,1,.8-.9.789.789,0,0,1,.8.8v.1a.773.773,0,0,0-.8-.7.849.849,0,0,0-.8.7Z" fill="#4f4c5b" fill-rule="evenodd"/>
    <path id="Path_1028" d="M-341.5,859.3v1.3h-1.2a.645.645,0,0,1-.6-.6.645.645,0,0,1,.6-.6h1.2Z" fill="#f25e0d" fill-rule="evenodd"/>
    <path id="Path_1029" d="M-343,859.4a.651.651,0,0,0,.2.9.367.367,0,0,0,.3.1h1v.2h-1.2a.645.645,0,0,1-.6-.6.6.6,0,0,1,.3-.6Z" fill="#ce500b" fill-rule="evenodd"/>
    <path id="Path_1030" d="M-349.8,858.7h.7c.1,0,.2-.1.3-.2v-.1H-350v.1c-.1.1,0,.2.2.2Z" fill="#020202" fill-rule="evenodd"/>
    <path id="Path_1031" d="M-359.9,858.7h.7c.1,0,.2-.1.3-.2v-.1h-1.2v.1c-.1.1,0,.2.2.2Z" fill="#020202" fill-rule="evenodd"/>
    <path id="Path_1032" d="M-349.8,858.6h.7c.1,0,.2-.1.3-.2,0-.1-.1-.2-.2-.3h-.8c-.1,0-.2.1-.3.2a.265.265,0,0,0,.3.3Z" fill="#d9d9d9" fill-rule="evenodd"/>
    <path id="Path_1033" d="M-359.9,858.6h.7c.1,0,.2-.1.3-.2,0-.1-.1-.2-.2-.3h-.8c-.1,0-.2.1-.3.2a.265.265,0,0,0,.3.3Z" fill="#d9d9d9" fill-rule="evenodd"/>
    <path id="Path_1034" d="M-350.1,858.4h1.2c0-.1-.1-.2-.3-.2h-.7a.215.215,0,0,0-.2.2Z" fill="#fff" fill-rule="evenodd"/>
    <path id="Path_1035" d="M-360.2,858.4h1.2c0-.1-.1-.2-.3-.2h-.7a.215.215,0,0,0-.2.2Z" fill="#fff" fill-rule="evenodd"/>
    <path id="Path_1036" d="M-368.1,857.6c-.5,0-.5-.5,0-1.1a9.775,9.775,0,0,1,6.7-3.8,24.314,24.314,0,0,1,6.6,0,10.087,10.087,0,0,1,6.7,3.7c.7.8.3,1.2,0,1.2Z" fill="#2b2b2b" fill-rule="evenodd"/>
    <path id="Path_1037" d="M-367,857.1c-.4,0-.5-.4,0-.9a8.721,8.721,0,0,1,6-3,29.077,29.077,0,0,1,5.9,0,9.254,9.254,0,0,1,6,2.9c.6.6.3,1,0,1Z" fill="#5d596b" fill-rule="evenodd"/>
    <path id="Path_1038" d="M-367.3,857c-.1-.1-.1-.4.3-.8a8.721,8.721,0,0,1,6-3,29.077,29.077,0,0,1,5.9,0,9.254,9.254,0,0,1,6,2.9c.4.4.4.6.3.8A9.745,9.745,0,0,0-355,854a32.1,32.1,0,0,0-6.2,0,9.618,9.618,0,0,0-6.1,3Z" fill="#4f4c5b" fill-rule="evenodd"/>
    <path id="Path_1039" d="M-356.1,853.1l1,.1,1.8.3-6.6,3.6h-3.6l7.4-4Zm3.6.7.4.2-5.9,3.2h-1l6.3-3.4Z" fill="#6a6677" fill-rule="evenodd"/>
    <path id="Path_1040" d="M-367.3,858.2h0a.846.846,0,0,1-1-.8.9.9,0,0,1,.7-1h0Z" fill="#070707" fill-rule="evenodd"/>
    <path id="Path_1041" d="M-367.4,858h0a.846.846,0,0,1-1-.8.9.9,0,0,1,.7-1h0Z" fill="#232323" fill-rule="evenodd"/>
    <path id="Path_1042" d="M-367.8,856.2h.1l.3,1.8h0a.8.8,0,0,1-.9-.5.663.663,0,0,0,.7.2h0l-.2-1.5Z" fill-rule="evenodd"/>
    <path id="Path_1043" d="M-367.7,856.4a.95.95,0,0,0-.6,1,.52.52,0,0,0,.2.4c-.2-.1-.3-.4-.4-.6a.921.921,0,0,1,.7-1.1h0l.1.3Z" fill="#070707" fill-rule="evenodd"/>
    <path id="Path_1044" d="M-357.5,852.7h.8v.2l-.8,4.3h-1.1l1.1-4.3v-.2Z" fill-rule="evenodd"/>
  </g>
</svg>
