<svg xmlns="http://www.w3.org/2000/svg" width="20.853" height="23.405" viewBox="0 0 20.853 23.405">
  <g id="Group_2464" data-name="Group 2464" transform="translate(-120.995 -774.565)">
    <path id="Path_808" data-name="Path 808" d="M-2124.686,320.914l.161-.058q2.434-.911,4.867-1.824a.71.71,0,0,1,.439-.03,9.45,9.45,0,0,0,4.358.075,9.459,9.459,0,0,0,7.367-8.357,9.451,9.451,0,0,0-.76-4.641,9.447,9.447,0,0,0-10.17-5.507,9.1,9.1,0,0,0-5.21,2.742,9.184,9.184,0,0,0-2.446,8.578,9.1,9.1,0,0,0,3.179,5.231.555.555,0,0,1,.122.807l-.579.907Z" transform="translate(2248.305 475.133)" fill="none" stroke="#fff" stroke-width="2"/>
    <path id="Path_814" data-name="Path 814" d="M9.537,7.637c-1.332-.346-1.761-.7-1.761-1.262,0-.64.593-1.086,1.585-1.086,1.045,0,1.432.5,1.467,1.233h1.3a2.34,2.34,0,0,0-1.884-2.236V3H8.48V4.268A2.291,2.291,0,0,0,6.426,6.387c0,1.356,1.121,2.031,2.759,2.424,1.467.352,1.761.869,1.761,1.415,0,.405-.288,1.051-1.585,1.051-1.209,0-1.685-.54-1.749-1.233H6.32a2.459,2.459,0,0,0,2.16,2.248v1.274h1.761V12.3c1.145-.217,2.054-.88,2.054-2.084C12.3,8.553,10.869,7.983,9.537,7.637Z" transform="translate(122.18 776.673)" fill="#fff"/>
  </g>
</svg>
