<svg xmlns="http://www.w3.org/2000/svg" width="55.788" height="55.788" viewBox="0 0 55.788 55.788">
  <g id="Group_1914" data-name="Group 1914" transform="translate(359.521 -304.057)">
    <circle id="Ellipse_59" data-name="Ellipse 59" cx="19.724" cy="19.724" r="19.724" transform="translate(-359.521 331.951) rotate(-45)" fill="#0d33c0"/>
    <g id="Group_1905" data-name="Group 1905" transform="translate(-352.846 332.434)">
      <path id="Path_882" data-name="Path 882" d="M-268.98,612.422c-.013-.022-1.252-2.108-2.538-4.361a48.693,48.693,0,0,1-2.92-5.546l.093-.031c.5,1.546,5.4,9.8,5.449,9.884Z" transform="translate(276.466 -600.336)" fill="#fdfeff"/>
      <path id="Path_883" data-name="Path 883" d="M-277.856,620.974l-3.416-1.129.03-.094,3.322,1.1c.46-1.327,1.127-3.314,1.121-3.484h.1c.005.243-1.027,3.224-1.142,3.564Z" transform="translate(282.601 -613.695)" fill="#fdfeff"/>
      <path id="Path_884" data-name="Path 884" d="M-269.6,652.393l-.035,0a40.417,40.417,0,0,1-4.829-1.453l.032-.093a43.662,43.662,0,0,0,4.764,1.445,38.06,38.06,0,0,0,1.273-4.067l.1,0a38.579,38.579,0,0,1-1.291,4.129Z" transform="translate(276.488 -641.397)" fill="#fdfeff"/>
    </g>
    <path id="Path_893" data-name="Path 893" d="M-253.3,687.929c0,2.917-9.175,5.282-20.495,5.282q-.571,0-1.134-.008h0l-.441-.008-.33-.007-.188,0-.515-.016-.077,0q-1.37-.045-2.68-.137h-.016c-7.507-.525-13.3-2.122-14.758-4.115a1.663,1.663,0,0,1-.354-.983c0-2.917,9.176-5.282,20.495-5.282S-253.3,685.012-253.3,687.929Z" transform="translate(-58.561 -339.865)" fill="#e5e5e5"/>
    <path id="Path_894" data-name="Path 894" d="M-262.493,719.4l-9.329,3.986h0l-.441-.008-.33-.007-.188,0-.515-.016-.077,0c-.883-.031-1.779-.077-2.68-.137h-.016c-7.507-.525-13.3-2.122-14.758-4.115l12.729-2.827,2.1,2.767Z" transform="translate(-61.666 -370.045)" fill="#e5e5e5"/>
    <path id="Path_895" data-name="Path 895" d="M-125.285,475.1a1.683,1.683,0,0,0-1.965-1.3,2.673,2.673,0,0,0-2.59,2.509,1.763,1.763,0,0,1-1.072,1.73c-1.118.778-1.705,3.654.219,4.531s5.554,1.388,5.9-.439-.122-2.144.365-3.289C-124.133,478.137-123.7,475.658-125.285,475.1Z" transform="translate(-204.295 -152.37)" fill="#2d292b"/>
    <path id="Path_897" data-name="Path 897" d="M-68.045,637.971l.012-.02,0-.013Z" transform="translate(-261.661 -299.73)" fill="#3ec6c6"/>
    <path id="Path_898" data-name="Path 898" d="M-54.023,581.376l.006,0Z" transform="translate(-274.25 -248.953)" fill="#070707" opacity="0.1"/>
    <path id="Path_899" data-name="Path 899" d="M-61.276,579.856h0Z" transform="translate(-267.738 -247.587)" fill="#070707" opacity="0.1"/>
    <path id="Path_900" data-name="Path 900" d="M-54.421,581.178l.007,0Z" transform="translate(-273.892 -248.775)" fill="#070707" opacity="0.1"/>
    <path id="Path_901" data-name="Path 901" d="M-53.212,581.832l0,0Z" transform="translate(-274.978 -249.362)" fill="#070707" opacity="0.1"/>
    <path id="Path_902" data-name="Path 902" d="M-52.077,582.6l0,0Z" transform="translate(-275.996 -250.053)" fill="#070707" opacity="0.1"/>
    <path id="Path_903" data-name="Path 903" d="M-62.415,579.962l.019,0Z" transform="translate(-266.716 -247.681)" fill="#070707" opacity="0.1"/>
    <path id="Path_904" data-name="Path 904" d="M-52.832,582.072l0,0Z" transform="translate(-275.319 -249.578)" fill="#070707" opacity="0.1"/>
    <path id="Path_905" data-name="Path 905" d="M-55.282,580.8l.008,0Z" transform="translate(-273.119 -248.437)" fill="#070707" opacity="0.1"/>
    <path id="Path_906" data-name="Path 906" d="M-62.069,579.9l.036,0Z" transform="translate(-267.026 -247.626)" fill="#070707" opacity="0.1"/>
    <path id="Path_907" data-name="Path 907" d="M-59.379,579.867h0Z" transform="translate(-269.441 -247.598)" fill="#070707" opacity="0.1"/>
    <path id="Path_908" data-name="Path 908" d="M-57.969,580.04l.011,0Z" transform="translate(-270.707 -247.753)" fill="#070707" opacity="0.1"/>
    <path id="Path_909" data-name="Path 909" d="M-55.7,580.644l.008,0Z" transform="translate(-272.748 -248.296)" fill="#070707" opacity="0.1"/>
    <path id="Path_910" data-name="Path 910" d="M-58.407,579.97l.012,0Z" transform="translate(-270.314 -247.691)" fill="#070707" opacity="0.1"/>
    <path id="Path_911" data-name="Path 911" d="M-57.028,580.239l.01,0Z" transform="translate(-271.552 -247.932)" fill="#070707" opacity="0.1"/>
    <path id="Path_912" data-name="Path 912" d="M-60.821,579.836h0Z" transform="translate(-268.147 -247.57)" fill="#070707" opacity="0.1"/>
    <path id="Path_913" data-name="Path 913" d="M-59.826,579.842h0Z" transform="translate(-269.04 -247.576)" fill="#070707" opacity="0.1"/>
    <path id="Path_914" data-name="Path 914" d="M-56.6,580.354l.01,0Z" transform="translate(-271.936 -248.035)" fill="#070707" opacity="0.1"/>
    <path id="Path_915" data-name="Path 915" d="M-49.205,585.513h0Z" transform="translate(-278.575 -252.667)" fill="#070707" opacity="0.1"/>
    <path id="Path_916" data-name="Path 916" d="M-63.086,580.089l.008,0Z" transform="translate(-266.114 -247.796)" fill="#070707" opacity="0.1"/>
    <path id="Path_917" data-name="Path 917" d="M-50.065,584.45h0Z" transform="translate(-277.803 -251.712)" fill="#070707" opacity="0.1"/>
    <path id="Path_918" data-name="Path 918" d="M-49.765,584.8h0Z" transform="translate(-278.072 -252.024)" fill="#070707" opacity="0.1"/>
    <path id="Path_919" data-name="Path 919" d="M-48.939,585.891Z" transform="translate(-278.813 -253.006)" fill="#070707" opacity="0.1"/>
    <path id="Path_920" data-name="Path 920" d="M-51.72,582.879l0,0Z" transform="translate(-276.317 -250.302)" fill="#070707" opacity="0.1"/>
    <path id="Path_921" data-name="Path 921" d="M-63.736,580.242h0Z" transform="translate(-265.53 -247.935)" fill="#070707" opacity="0.1"/>
    <path id="Path_922" data-name="Path 922" d="M-64.054,580.329h0Z" transform="translate(-265.245 -248.013)" fill="#070707" opacity="0.1"/>
    <path id="Path_923" data-name="Path 923" d="M-62.753,580.022l.012,0Z" transform="translate(-266.412 -247.736)" fill="#070707" opacity="0.1"/>
    <path id="Path_924" data-name="Path 924" d="M-50.694,583.79h0Z" transform="translate(-277.238 -251.12)" fill="#070707" opacity="0.1"/>
    <path id="Path_925" data-name="Path 925" d="M-51.025,583.476l0,0Z" transform="translate(-276.941 -250.838)" fill="#070707" opacity="0.1"/>
    <path id="Path_926" data-name="Path 926" d="M-63.413,580.162h0Z" transform="translate(-265.82 -247.862)" fill="#070707" opacity="0.1"/>
    <path id="Path_927" data-name="Path 927" d="M-59.7,579.848l.033,0Z" transform="translate(-269.151 -247.581)" fill="#752c52"/>
    <path id="Path_928" data-name="Path 928" d="M-63.713,580.178l.031-.007Z" transform="translate(-265.551 -247.871)" fill="#752c52"/>
    <path id="Path_929" data-name="Path 929" d="M-64.048,580.255l.032-.008Z" transform="translate(-265.25 -247.939)" fill="#752c52"/>
    <path id="Path_930" data-name="Path 930" d="M-63.009,580.044l.026,0Z" transform="translate(-266.183 -247.753)" fill="#752c52"/>
    <path id="Path_931" data-name="Path 931" d="M-62.232,579.939l.017,0Z" transform="translate(-266.88 -247.661)" fill="#752c52"/>
    <path id="Path_932" data-name="Path 932" d="M-59.258,579.875l.087.01Z" transform="translate(-269.55 -247.605)" fill="#752c52"/>
    <path id="Path_933" data-name="Path 933" d="M-62.634,579.988l.022,0Z" transform="translate(-266.519 -247.703)" fill="#752c52"/>
    <path id="Path_934" data-name="Path 934" d="M-61.147,579.842l.033,0Z" transform="translate(-267.854 -247.574)" fill="#752c52"/>
    <path id="Path_935" data-name="Path 935" d="M-61.716,579.867l.045,0Z" transform="translate(-267.343 -247.595)" fill="#752c52"/>
    <path id="Path_936" data-name="Path 936" d="M-63.368,580.108l.029-.006Z" transform="translate(-265.86 -247.809)" fill="#752c52"/>
    <path id="Path_937" data-name="Path 937" d="M-52.047,582.623l.033.026Z" transform="translate(-276.023 -250.072)" fill="#752c52"/>
    <path id="Path_938" data-name="Path 938" d="M-49.763,584.8c.02.024.039.048.057.073C-49.724,584.847-49.743,584.823-49.763,584.8Z" transform="translate(-278.074 -252.026)" fill="#752c52"/>
    <path id="Path_939" data-name="Path 939" d="M-50.686,583.8q.033.032.064.067Q-50.653,583.83-50.686,583.8Z" transform="translate(-277.245 -251.127)" fill="#752c52"/>
    <path id="Path_940" data-name="Path 940" d="M-51.7,582.9q.035.028.069.059Q-51.665,582.924-51.7,582.9Z" transform="translate(-276.335 -250.317)" fill="#752c52"/>
    <path id="Path_941" data-name="Path 941" d="M-51.008,583.492l.032.031Z" transform="translate(-276.956 -250.852)" fill="#752c52"/>
    <path id="Path_942" data-name="Path 942" d="M-50.056,584.46l.03.034Z" transform="translate(-277.811 -251.721)" fill="#752c52"/>
    <path id="Path_943" data-name="Path 943" d="M-60.605,579.833h0Z" transform="translate(-268.261 -247.567)" fill="#752c52"/>
    <path id="Path_944" data-name="Path 944" d="M-49.2,585.522l.027.038Z" transform="translate(-278.58 -252.675)" fill="#752c52"/>
    <path id="Path_945" data-name="Path 945" d="M-52.8,582.095q.038.025.074.052Q-52.758,582.12-52.8,582.095Z" transform="translate(-275.351 -249.598)" fill="#752c52"/>
    <path id="Path_946" data-name="Path 946" d="M-56.507,580.38l.083.027Z" transform="translate(-272.02 -248.059)" fill="#752c52"/>
    <path id="Path_947" data-name="Path 947" d="M-58.293,579.987l.033.005Z" transform="translate(-270.416 -247.706)" fill="#752c52"/>
    <path id="Path_948" data-name="Path 948" d="M-56.927,580.265l.033.009Z" transform="translate(-271.643 -247.956)" fill="#752c52"/>
    <path id="Path_949" data-name="Path 949" d="M-57.86,580.059l.085.018Z" transform="translate(-270.805 -247.771)" fill="#752c52"/>
    <path id="Path_950" data-name="Path 950" d="M-55.613,580.675l.034.013Z" transform="translate(-272.822 -248.324)" fill="#752c52"/>
    <path id="Path_951" data-name="Path 951" d="M-53.166,581.86l.034.022Z" transform="translate(-275.019 -249.387)" fill="#752c52"/>
    <path id="Path_952" data-name="Path 952" d="M-55.207,580.831l.08.035C-55.153,580.854-55.18,580.842-55.207,580.831Z" transform="translate(-273.187 -248.464)" fill="#752c52"/>
    <path id="Path_953" data-name="Path 953" d="M-53.968,581.405q.039.021.077.044C-53.916,581.433-53.942,581.419-53.968,581.405Z" transform="translate(-274.299 -248.979)" fill="#752c52"/>
    <path id="Path_954" data-name="Path 954" d="M-54.357,581.209l.034.017Z" transform="translate(-273.95 -248.803)" fill="#752c52"/>
    <g id="Group_1913" data-name="Group 1913" transform="translate(-349.23 322.392)">
      <g id="Group_1912" data-name="Group 1912" transform="translate(0 11.627)">
        <path id="Path_955" data-name="Path 955" d="M-199.309,605.643l-1.105.094-.437.032-.17.327-4.82,9.257.33.172,4.926-9.462,1.3-.108Z" transform="translate(211.27 -604.757)" fill="#033747"/>
        <path id="Path_956" data-name="Path 956" d="M-157.763,603.237a.429.429,0,0,1-.579.182.429.429,0,0,1-.182-.579.429.429,0,0,1,.579-.182A.429.429,0,0,1-157.763,603.237Z" transform="translate(168.837 -602.034)" fill="#033747"/>
        <path id="Path_957" data-name="Path 957" d="M-148.062,598.165l.106.819a.275.275,0,0,1-.013.125l-.134.389a.361.361,0,0,1-.281.238l-.463.078.215-.915.272-.78Z" transform="translate(160.105 -598.003)" fill="#f5f9fc"/>
        <path id="Path_958" data-name="Path 958" d="M-154.379,596.98l-.592.472-.221.233a.539.539,0,0,0-.128.52l.129.449.275.2.141.048.3-.412.023-.783.36-.526Z" transform="translate(165.936 -596.98)" fill="#f5f9fc"/>
        <g id="Group_1909" data-name="Group 1909" transform="translate(6.213 0.606)">
          <rect id="Rectangle_789" data-name="Rectangle 789" width="0.467" height="10.744" transform="translate(4.961 0.548) rotate(27.504)" fill="#033747"/>
          <path id="Path_959" data-name="Path 959" d="M-151.043,603.663a.519.519,0,0,1-.7.221.519.519,0,0,1-.221-.7.519.519,0,0,1,.7-.221A.519.519,0,0,1-151.043,603.663Z" transform="translate(156.743 -602.904)" fill="#033747"/>
        </g>
        <g id="Group_1910" data-name="Group 1910" transform="translate(0 5.115)">
          <path id="Path_960" data-name="Path 960" d="M-250.856,648.242l-2.276-1.142a1.007,1.007,0,0,0-1.334.4l-3.639,6.737a.936.936,0,0,0,.424,1.284l2.276,1.143a1.007,1.007,0,0,0,1.334-.4l3.639-6.737A.936.936,0,0,0-250.856,648.242Z" transform="translate(258.288 -646.991)" fill="#033747"/>
          <path id="Path_961" data-name="Path 961" d="M-258.578,718.471l-.157-.63a1.374,1.374,0,0,0,.581,1.914Z" transform="translate(258.918 -710.594)" fill="#2d292b"/>
          <path id="Path_962" data-name="Path 962" d="M-185.831,660.508l.157.63a1.378,1.378,0,0,0-.581-1.914l.03.728Z" transform="translate(193.687 -657.973)" fill="#2d292b"/>
        </g>
        <path id="Path_963" data-name="Path 963" d="M-253.873,662.828l-2.276-1.142a.937.937,0,0,1-.424-1.284l3.639-6.737a1.007,1.007,0,0,1,1.334-.4l2.276,1.143a.936.936,0,0,1,.424,1.284l-3.639,6.737A1.007,1.007,0,0,1-253.873,662.828Z" transform="translate(256.913 -647.408)" fill="#044c68"/>
        <path id="Path_964" data-name="Path 964" d="M-237.343,654l-.034-.48-.364-.183.017.476a.317.317,0,0,1-.038.162l-4.276,7.911-.234.434.4.2.234-.434,4.124-7.662.135-.251A.317.317,0,0,0-237.343,654Z" transform="translate(243.975 -647.572)" fill="#fff"/>
        <g id="Group_1911" data-name="Group 1911" transform="translate(3.191 14.499)">
          <path id="Path_965" data-name="Path 965" d="M-226.015,740.049a.9.9,0,0,1-1.219.384.9.9,0,0,1-.384-1.219.9.9,0,0,1,1.219-.384A.9.9,0,0,1-226.015,740.049Z" transform="translate(227.722 -738.727)" fill="#033747"/>
          <path id="Path_966" data-name="Path 966" d="M-222.694,743.549a.483.483,0,0,1-.652.205.483.483,0,0,1-.205-.652.483.483,0,0,1,.652-.206A.483.483,0,0,1-222.694,743.549Z" transform="translate(224.027 -742.422)" fill="#fff"/>
        </g>
      </g>
      <path id="Path_967" data-name="Path 967" d="M-51.531,603.048l.592.651a.812.812,0,0,1,.194.38l.123.59a.4.4,0,0,1-.046.282l-.044.074a.4.4,0,0,1-.261.187l-.152.032a.1.1,0,0,1-.116-.093l-.069-.97a.011.011,0,0,0-.022,0l-.081.551-.105-.086a.722.722,0,0,1-.25-.411l-.1-.488-.148-.71Z" transform="translate(73.181 -590.79)" fill="#f5f9fc"/>
      <path id="Path_968" data-name="Path 968" d="M-80.369,526.237l.051-.1a.571.571,0,0,1,.71-.273,1.989,1.989,0,0,1,.3.146,2.106,2.106,0,0,1,.921,1.149,7.191,7.191,0,0,1,.375,1.572,3.109,3.109,0,0,0,.059.444l.408,2a4.2,4.2,0,0,0,.229.753l.73,1.782-1,.581-.834-1.845a8.989,8.989,0,0,1-.638-2.016l-.3-1.594-.373-1.643Z" transform="translate(98.632 -521.479)" fill="#ef65b4"/>
      <path id="Path_969" data-name="Path 969" d="M-100.6,502.928l.012-2.434-1.535-.007-.012,2.434a.23.23,0,0,1-.231.228l-.59,0-.013,2.64,3.358.016-.477-2.332-.191-.275C-100.408,503.195-100.6,503.055-100.6,502.928Z" transform="translate(118.922 -498.73)" fill="#f5f9fc"/>
      <path id="Path_970" data-name="Path 970" d="M-92.134,500.476a2.666,2.666,0,0,0-.054.525,1.746,1.746,0,0,0,1.274,1.906l.012-2.435Z" transform="translate(109.242 -498.718)" fill="#66244a"/>
      <path id="Path_971" data-name="Path 971" d="M-90.651,486.374c-.005,1.056-.615,1.909-1.363,1.906s-1.35-.863-1.345-1.919.615-1.909,1.363-1.906S-90.646,485.318-90.651,486.374Z" transform="translate(110.293 -484.339)" fill="#f5f9fc"/>
      <path id="Path_972" data-name="Path 972" d="M-94.767,524.756l1.164,1.08a.392.392,0,0,0,.454.057h0a.452.452,0,0,0,.227-.488l-.1-.473.117-.05a4.932,4.932,0,0,1,.946,2.868l-.317,4.818-1.471-3.918-.685-.952-.1-2.178Z" transform="translate(111.557 -520.517)" fill="#ff9cf1"/>
      <path id="Path_973" data-name="Path 973" d="M-101.244,483.312a2.628,2.628,0,0,1-1.793,1.471l-.874,1.782-.412-1.453.675-1.057.9-.694Z" transform="translate(120.136 -483.312)" fill="#2d292b"/>
      <path id="Path_974" data-name="Path 974" d="M-97.909,493.285c.2.343.2.707.017.813s-.5-.085-.692-.428-.2-.707-.017-.813S-98.1,492.942-97.909,493.285Z" transform="translate(115.12 -491.854)" fill="#f5f9fc"/>
      <path id="Path_975" data-name="Path 975" d="M-150.483,602.8a21.407,21.407,0,0,1-1.115,4.1c-.065.13-.128.262-.187.395l-.54,1.226a2.892,2.892,0,0,1-.763,1.034,2.5,2.5,0,0,1-.372.266,3.6,3.6,0,0,0-.565.4,11.99,11.99,0,0,0-1.488,1.465c-.027.039-.054.078-.082.116l-1.25,1.687.552.929a.517.517,0,0,0,.442.253h.1l.8-.992a8.145,8.145,0,0,1,.938-.987l.944-.84a5.517,5.517,0,0,1,1.039-.729l.343-.186a3.274,3.274,0,0,0,1.2-1.123l1.552-2.443a4.4,4.4,0,0,0,.676-2.07l.138-2.1Z" transform="translate(167.287 -590.581)" fill="#044c68"/>
      <path id="Path_976" data-name="Path 976" d="M-151.011,627.963h.1l.8-.992a8.136,8.136,0,0,1,.938-.987l.944-.84a5.517,5.517,0,0,1,1.039-.729l.343-.186a3.274,3.274,0,0,0,1.2-1.123l1.552-2.443a4.4,4.4,0,0,0,.609-1.543l-2.471-1.513-1.146,5.687-2.77,2.331-1.583,2.085A.517.517,0,0,0-151.011,627.963Z" transform="translate(162.445 -603.87)" fill="#033747"/>
      <path id="Path_977" data-name="Path 977" d="M-113.634,596.755s-1.015,2.283.429,3.686l2.853,3.09c.1.107.2.209.306.309a1.723,1.723,0,0,1,.556,1.531,4.961,4.961,0,0,0,.653,2.835c.149.223.328.424.462.656a4.232,4.232,0,0,1,.646,1.708,1.707,1.707,0,0,0,1.7-.511s-.143-.237-.328-.593a9.082,9.082,0,0,1-.81-2.255,21.281,21.281,0,0,1-.539-3.477,2.328,2.328,0,0,0-.171-.913,20.163,20.163,0,0,0-1.226-2.588q-.135-.22-.258-.448c-.406-.748-1.585-2.812-2.225-2.815Z" transform="translate(128.806 -585.151)" fill="#044c68"/>
      <path id="Path_978" data-name="Path 978" d="M-113.327,523.437s.829,1.293.948,1.526a8.871,8.871,0,0,1,1.152,3.933c.038.657.486,2.395.06,3.011l-2.195-.167a4.086,4.086,0,0,0-1.982.345,2.758,2.758,0,0,0-.4.21l.326-1.668a6.2,6.2,0,0,0,.113-1.36l-.116-4.218a1.648,1.648,0,0,1,.651-1.358l.551-.418a.788.788,0,0,1,.48-.16h0C-113.554,523.113-113.469,523.314-113.327,523.437Z" transform="translate(130.391 -519.041)" fill="#ef65b4"/>
      <path id="Path_979" data-name="Path 979" d="M-110.873,533.517c.529-.814.553-1.338.479-1.552q-.03-.086-.055-.173c-.266-.942-.863-.791-1.333-.48a2.434,2.434,0,0,0-.807.9l.092,3.33.763-1.038C-111.476,534.148-111.111,533.883-110.873,533.517Z" transform="translate(127.556 -526.189)" fill="#dd379e"/>
      <path id="Path_980" data-name="Path 980" d="M-145.55,530.076c.47-.311,1.067-.462,1.333.48q.025.087.055.173c.074.213.051.738-.479,1.552-.238.366-.6.631-.861.982L-146.779,535l-1.908,2.391-1.184-.658,2.287-3.387a5.389,5.389,0,0,0,.365-.629l.831-1.684A2.438,2.438,0,0,1-145.55,530.076Z" transform="translate(161.025 -525.079)" fill="#ef65b4"/>
    </g>
    <path id="Path_981" data-name="Path 981" d="M-47.509,729.745a12.781,12.781,0,0,1-3.658.059,6.27,6.27,0,0,1-.182-1.567,1.719,1.719,0,0,0,1.44-.445,1.225,1.225,0,0,0,.847.694C-48.256,728.663-47.154,729.489-47.509,729.745Z" transform="translate(-276.65 -380.392)" fill="#033747"/>
    <path id="Path_982" data-name="Path 982" d="M-164.284,710.076a12.14,12.14,0,0,1-2.1-2.767,5.954,5.954,0,0,1,1.1-1.021,1.632,1.632,0,0,0,1.151.852,1.164,1.164,0,0,0-.055,1.038C-163.876,708.9-163.889,710.2-164.284,710.076Z" transform="translate(-173.379 -361.089)" fill="#033747"/>
  </g>
</svg>
