<svg xmlns="http://www.w3.org/2000/svg" width="33.862" height="37.542" viewBox="0 0 33.862 37.542">
  <g id="Group_2429" data-name="Group 2429" transform="translate(1.006 1.015)">
    <path id="Path_808" data-name="Path 808" d="M-2123.569,335.043c.133-.047.2-.071.273-.1q4.114-1.54,8.227-3.083a1.2,1.2,0,0,1,.742-.05,15.971,15.971,0,0,0,7.366.126,15.988,15.988,0,0,0,12.451-14.124,15.975,15.975,0,0,0-1.284-7.844,15.967,15.967,0,0,0-17.188-9.308,15.379,15.379,0,0,0-8.806,4.634,15.522,15.522,0,0,0-4.134,14.5,15.389,15.389,0,0,0,5.372,8.841.938.938,0,0,1,.206,1.363l-.979,1.533Z" transform="translate(2126.304 -300.441)" fill="none" stroke="#fff" stroke-width="2"/>
    <g id="attach_money_black_24dp" transform="translate(6.609 5.943)">
      <path id="Path_813" data-name="Path 813" d="M0,0H19.827V19.827H0Z" fill="none"/>
      <path id="Path_814" data-name="Path 814" d="M10.847,9.527C8.972,9.039,8.369,8.535,8.369,7.75c0-.9.834-1.528,2.231-1.528,1.471,0,2.016.7,2.065,1.735h1.826a3.293,3.293,0,0,0-2.652-3.148V3H9.36V4.784c-1.6.347-2.892,1.388-2.892,2.982,0,1.908,1.578,2.858,3.883,3.412,2.065.5,2.478,1.223,2.478,1.991,0,.57-.4,1.479-2.231,1.479-1.7,0-2.371-.76-2.462-1.735H6.32a3.461,3.461,0,0,0,3.04,3.164v1.793h2.478V16.094c1.611-.306,2.892-1.239,2.892-2.933C14.73,10.815,12.723,10.014,10.847,9.527Z" transform="translate(-1.099 -0.522)" fill="#fff"/>
    </g>
  </g>
</svg>
