<svg xmlns="http://www.w3.org/2000/svg" width="41.692" height="36.955" viewBox="0 0 41.692 36.955">
  <g id="Group_2430" data-name="Group 2430" transform="translate(0)">
    <g id="Group_521" data-name="Group 521" transform="translate(0 7.81)">
      <path id="Path_805" data-name="Path 805" d="M672.549,773.7H641.758a5.457,5.457,0,0,1-5.451-5.451V750a5.457,5.457,0,0,1,5.451-5.452h30.791A5.457,5.457,0,0,1,678,750v18.242A5.457,5.457,0,0,1,672.549,773.7Zm-30.791-26.028A2.337,2.337,0,0,0,639.424,750v18.242a2.337,2.337,0,0,0,2.334,2.334h30.791a2.336,2.336,0,0,0,2.332-2.334V750a2.336,2.336,0,0,0-2.332-2.334Z" transform="translate(-636.307 -744.55)" fill="#fff"/>
    </g>
    <g id="Group_522" data-name="Group 522" transform="translate(10.296)">
      <path id="Path_806" data-name="Path 806" d="M662.087,775.786H659.46V747.415a3.793,3.793,0,0,0-3.788-3.788H647.4a3.794,3.794,0,0,0-3.788,3.788v28.371h-2.627V747.415A6.422,6.422,0,0,1,647.4,741h8.27a6.422,6.422,0,0,1,6.415,6.415Z" transform="translate(-640.987 -741)" fill="#fff"/>
    </g>
  </g>
</svg>
