<?xml version="1.0" encoding="utf-8"?>
<!-- Generator: Adobe Illustrator 23.0.5, SVG Export Plug-In . SVG Version: 6.00 Build 0)  -->
<svg version="1.1" id="Layer_1" xmlns="http://www.w3.org/2000/svg" xmlns:xlink="http://www.w3.org/1999/xlink" x="0px" y="0px"
	 viewBox="0 0 500 500" style="enable-background:new 0 0 500 500;" xml:space="preserve">
<style type="text/css">
	.st0{fill:#070909;}
	.st1{fill:none;stroke:#0D0E0F;stroke-width:4;stroke-miterlimit:10;}
	.st2{fill:none;stroke:#0D0E0F;stroke-width:4;stroke-linecap:round;stroke-miterlimit:10;}
	.st3{fill:#FCD22D;stroke:#0D0E0F;stroke-width:4;stroke-miterlimit:10;}
	.st4{fill:#D5D9DC;}
	.st5{fill:none;stroke:#000000;stroke-width:4;stroke-miterlimit:10;}
</style>
<g>
	<circle class="st0" cx="326.2" cy="211.1" r="5.9"/>
	<circle class="st0" cx="198.5" cy="211.1" r="5.9"/>
	<path class="st0" d="M277.8,246.6h-27.4c-1.7,0-3.2-1.4-3.2-3.2l0,0c0-1.7,1.4-3.2,3.2-3.2h27.4c1.7,0,3.2,1.4,3.2,3.2l0,0
		C281,245.2,279.5,246.6,277.8,246.6z"/>
	<g>
		<g>
			<path class="st1" d="M112,196.9c-1.1,0-2-0.9-2-2v-10.7c0-1.1,0.9-2,2-2s2,0.9,2,2v10.7C114,196,113.1,196.9,112,196.9z"/>
		</g>
	</g>
	<g>
		<g>
			<path class="st0" d="M328.6,327c-0.8-0.8-0.7-2.2,0.3-3.1l9.1-9.1c0.9-0.9,2.3-1.1,3.1-0.3c0.8,0.8,0.7,2.2-0.3,3.1l-9.1,9.1
				C330.8,327.7,329.4,327.8,328.6,327z"/>
		</g>
		<g>
			<path class="st0" d="M340.9,327.1c-0.8,0.8-2.2,0.6-3.1-0.3l-8.9-9.2c-0.9-1-1-2.4-0.2-3.1c0.8-0.8,2.2-0.6,3.1,0.3l8.9,9.2
				C341.6,325,341.7,326.4,340.9,327.1z"/>
		</g>
	</g>
	<g>
		<g>
			<path class="st1" d="M95.6,204.5c-0.7,0.8-2,1-2.8,0.3l-8.2-6.8c-0.8-0.7-1-2-0.3-2.8s2-1,2.8-0.3l8.2,6.8
				C96.2,202.4,96.3,203.7,95.6,204.5z"/>
		</g>
	</g>
	<g>
		<g>
			<path class="st1" d="M88.6,222.3c0.1,1.1-0.8,2-1.9,2.1L76,224.9c-1.1,0.1-2-0.8-2.1-1.9s0.8-2,1.9-2.1l10.7-0.5
				C87.6,220.4,88.6,221.2,88.6,222.3z"/>
		</g>
	</g>
	<circle class="st1" cx="305.8" cy="357.5" r="9.3"/>
	<circle class="st1" cx="158.1" cy="316.1" r="9.3"/>
	<g>
		<path class="st0" d="M165.4,361c0-1.1,1.2-2,2.7-2h14.6c1.5,0,2.7,0.9,2.7,2s-1.2,2-2.7,2h-14.6C166.6,363,165.4,362.1,165.4,361z
			"/>
	</g>
	<g>
		<path class="st0" d="M175.5,371.1c-1.1,0-2-1.2-2-2.7v-14.6c0-1.5,0.9-2.7,2-2.7s2,1.2,2,2.7v14.6
			C177.5,369.8,176.6,371,175.5,371.1z"/>
	</g>
	<path class="st2" d="M114.2,366.8c0,0,28.9-10.3,24.2-13.2c-4.7-2.9-11.9-4-11.9-4s17.2-6.9,18.3-6.9"/>
	<path class="st2" d="M362.8,373c0,0-28.9-10.3-24.2-13.2c4.7-2.9,11.9-4,11.9-4s-17.2-6.9-18.3-6.9"/>
	<path class="st3" d="M215.3,293.2c0,0-24.3,46.6-16.8,45.9s38.4-1.3,38.4-1.3L217,391.6l91.9-84.8H262l6.7-13.6L215.3,293.2
		L215.3,293.2z"/>
	<path class="st4" d="M425.3,243.4L425.3,243.4c-10.5,27.3-27.1,40-41.6,45.8c-12.8,5.1-24,4.8-28.2,4.4c-1.1-0.1-1.7-0.3-1.7-0.3
		c73.3-93-25.3-106.1-27.6-103.6c-44.9-97.5-137.8-49.1-137.8-49.1l-1.8-3.4c26.2-22.9,63.8-31.8,91.6-27.7
		c48.4,7.1,79.7,67.1,79.7,67.1s28.5-17.8,58.7,29.3C425.6,219.9,427.3,232.6,425.3,243.4z"/>
	<path class="st5" d="M425.3,243.4L425.3,243.4c-4.8,25.4-30.1,40.7-30.1,40.7c-2.9,2.1-6.9,3.8-11.5,5.1
		c-7.9,2.3-17.8,3.6-28.2,4.4c-32,2.3-69.3-1.2-69.3-1.2s-101.9,1.2-139,2c-37,0.8-71.4,1-69.9-18.3s29.3-10.4,28.2-11.9
		c-20.2-69,49.2-53.5,50.1-52.6c-1.7-32.8,11.5-57.5,31-74.5c26.2-22.9,63.8-31.8,91.6-27.7c48.4,7.1,79.7,67.1,79.7,67.1
		s28.5-17.8,58.7,29.3C425.6,219.9,427.3,232.6,425.3,243.4z"/>
</g>
</svg>
