<svg xmlns="http://www.w3.org/2000/svg" width="37.486" height="46.857" viewBox="0 0 37.486 46.857">
  <path id="Path_1252" data-name="Path 1252" d="M27.429,2H8.686A4.7,4.7,0,0,0,4,6.686V44.171a4.7,4.7,0,0,0,4.686,4.686H36.8a4.7,4.7,0,0,0,4.686-4.686V16.057ZM8.686,44.171V6.686h16.4v9.371H36.8V44.171ZM20.4,41.829h4.686V39.486h2.343a2.35,2.35,0,0,0,2.343-2.343V30.114a2.35,2.35,0,0,0-2.343-2.343H20.4V25.429h9.371V20.743H25.086V18.4H20.4v2.343H18.057a2.35,2.35,0,0,0-2.343,2.343v7.029a2.35,2.35,0,0,0,2.343,2.343h7.029V34.8H15.714v4.686H20.4Z" transform="translate(-4 -2)" fill="#fff"/>
</svg>
