<svg xmlns="http://www.w3.org/2000/svg" width="37.486" height="48.322" viewBox="0 0 37.486 48.322">
  <g id="Group_3835" data-name="Group 3835" transform="translate(-242 -580.499)">
    <path id="Path_1253" data-name="Path 1253" d="M27.429,2H8.686A4.7,4.7,0,0,0,4,6.686V44.171a4.7,4.7,0,0,0,4.686,4.686H36.8a4.7,4.7,0,0,0,4.686-4.686V16.057ZM8.686,44.171V6.686h16.4v9.371H36.8V44.171ZM20.4,41.829h4.686V39.486h2.343a2.35,2.35,0,0,0,2.343-2.343V30.114a2.35,2.35,0,0,0-2.343-2.343H20.4V25.429h9.371V20.743H25.086V18.4H20.4v2.343H18.057a2.35,2.35,0,0,0-2.343,2.343v7.029a2.35,2.35,0,0,0,2.343,2.343h7.029V34.8H15.714v4.686H20.4Z" transform="translate(238 579.964)" fill="#fff"/>
    <g id="Group_2163" data-name="Group 2163" transform="translate(-6.465 -15.626)">
      <circle id="Ellipse_57" data-name="Ellipse 57" cx="7.987" cy="7.987" r="7.987" transform="translate(268.661 596.125)" fill="#0dc02b"/>
      <path id="Path_834" data-name="Path 834" d="M12.274,5.733,11.541,5l-2.9,2.9L5.733,5,5,5.733l2.9,2.9L5,11.541l.733.733,2.9-2.9,2.9,2.9.733-.733-2.9-2.9Z" transform="translate(268.26 595.724)" fill="#fff"/>
    </g>
  </g>
</svg>
