<svg id="Group_3834" data-name="Group 3834" xmlns="http://www.w3.org/2000/svg" width="390" height="187" viewBox="0 0 390 187">
  <rect id="Rectangle_1684" data-name="Rectangle 1684" width="390" height="187" fill="#f0f3fd"/>
  <g id="undraw_agreement_re_d4dv" transform="translate(130 34.067)">
    <path id="Path_2192" data-name="Path 2192" d="M907.6,750.234V737.612S912.521,746.561,907.6,750.234Z" transform="translate(-788.845 -624.494)" fill="#f1f1f1"/>
    <path id="Path_2193" data-name="Path 2193" d="M865.353,769.554l-9.3-8.536S865.973,763.446,865.353,769.554Z" transform="translate(-746.292 -643.816)" fill="#f1f1f1"/>
    <path id="Path_2194" data-name="Path 2194" d="M332.46,145.023l-49.343,28.839a.755.755,0,0,1-1.031-.27l-31.73-54.29a.755.755,0,0,1,.27-1.031l49.343-28.839A.755.755,0,0,1,301,89.7l31.731,54.29a.755.755,0,0,1-.27,1.032Z" transform="translate(-246.195 -89.328)" fill="#fff"/>
    <path id="Path_2195" data-name="Path 2195" d="M332.46,145.023l-49.343,28.839a.755.755,0,0,1-1.031-.27l-31.73-54.29a.755.755,0,0,1,.27-1.031l49.343-28.839A.755.755,0,0,1,301,89.7l31.731,54.29a.755.755,0,0,1-.27,1.032Zm-81.682-26.493a.453.453,0,0,0-.162.619l31.731,54.29a.453.453,0,0,0,.619.162l49.343-28.839a.453.453,0,0,0,.162-.619L300.74,89.854a.453.453,0,0,0-.619-.162Z" transform="translate(-246.195 -89.328)" fill="#3f3d56"/>
    <path id="Path_2196" data-name="Path 2196" d="M337.935,223.128,325.7,230.281a.755.755,0,0,1-1.031-.271l-7.153-12.238a.755.755,0,0,1,.27-1.031l12.238-7.153a.755.755,0,0,1,1.031.27l7.153,12.238a.755.755,0,0,1-.27,1.031Zm-20-6.127a.453.453,0,0,0-.162.619l7.153,12.238a.453.453,0,0,0,.619.162l12.238-7.153a.453.453,0,0,0,.162-.619l-7.153-12.238a.453.453,0,0,0-.619-.162Z" transform="translate(-301.635 -188.519)" fill="#f2f2f2"/>
    <path id="Path_2197" data-name="Path 2197" d="M323.341,244.148,311.1,251.3a.679.679,0,0,1-.928-.243l-7.153-12.238a.679.679,0,0,1,.243-.928l12.238-7.153a.679.679,0,0,1,.928.243l7.153,12.238A.679.679,0,0,1,323.341,244.148Z" transform="translate(-289.681 -205.987)" fill="#6c63ff"/>
    <path id="Path_2198" data-name="Path 2198" d="M403.278,249.15,365,271.521a.679.679,0,1,1-.685-1.172l38.276-22.371a.679.679,0,0,1,.685,1.172Z" transform="translate(-340.079 -220.219)" fill="#ccc"/>
    <path id="Path_2199" data-name="Path 2199" d="M407.554,303.242l-29.033,16.969a.679.679,0,1,1-.685-1.172l29.033-16.969a.679.679,0,0,1,.685,1.172Z" transform="translate(-351.239 -264.873)" fill="#ccc"/>
    <path id="Path_2200" data-name="Path 2200" d="M453.832,164.526l-16.925,9.892a.679.679,0,0,1-.685-1.172l16.925-9.892a.679.679,0,0,1,.685,1.172Z" transform="translate(-399.438 -150.361)" fill="#ccc"/>
    <path id="Path_2201" data-name="Path 2201" d="M463.127,201.805l-12.7,7.423a.679.679,0,0,1-.685-1.172l12.7-7.423a.679.679,0,1,1,.685,1.172Z" transform="translate(-410.598 -181.135)" fill="#ccc"/>
    <path id="Path_2202" data-name="Path 2202" d="M430.315,295.41l-38.276,22.371a.679.679,0,0,1-.685-1.172l38.276-22.371a.679.679,0,1,1,.685,1.172Z" transform="translate(-362.399 -258.407)" fill="#ccc"/>
    <path id="Path_2203" data-name="Path 2203" d="M434.591,349.5l-29.033,16.969a.679.679,0,1,1-.685-1.172l29.033-16.969a.679.679,0,1,1,.685,1.172Z" transform="translate(-373.559 -303.061)" fill="#ccc"/>
    <path id="Path_2204" data-name="Path 2204" d="M457.353,341.67l-38.276,22.371a.679.679,0,1,1-.685-1.172L456.669,340.5a.679.679,0,1,1,.685,1.172Z" transform="translate(-384.719 -296.596)" fill="#ccc"/>
    <path id="Path_2205" data-name="Path 2205" d="M470.872,364.8,432.6,387.172A.679.679,0,1,1,431.91,386l38.276-22.371a.679.679,0,0,1,.685,1.172Z" transform="translate(-395.878 -315.69)" fill="#ccc"/>
    <path id="Path_2206" data-name="Path 2206" d="M581.633,412.754a14.773,14.773,0,0,0,1.431-2,5.317,5.317,0,0,0,.83-2.064,2.039,2.039,0,0,0-.611-1.742,1.435,1.435,0,0,0-1.683-.191,1.712,1.712,0,0,0-.859,1.529,2.261,2.261,0,0,0,.966,1.712,4.161,4.161,0,0,0,4.1.153,2.533,2.533,0,0,0,.993-3.8c-.222-.262-.591.031-.536.313a1.522,1.522,0,0,0,3.015-.373l-.48.28a3.663,3.663,0,0,0,3.643-.391,3.4,3.4,0,0,0,.682-.659,4,4,0,0,1,.949-.725l2.3-1.59c.339-.234.017-.791-.325-.556l-2.084,1.44c-.347.24-.7.477-1.042.72a7.138,7.138,0,0,0-.623.661,3.017,3.017,0,0,1-3.185.539.326.326,0,0,0-.48.28.881.881,0,1,1-1.749.207l-.536.313a1.852,1.852,0,0,1-.563,2.6,3.651,3.651,0,0,1-3.2.336,1.886,1.886,0,0,1-1.111-1.019,1.124,1.124,0,0,1,.255-1.286.807.807,0,0,1,1.121-.012,1.443,1.443,0,0,1,.382,1.3,5.215,5.215,0,0,1-.791,1.79,13.755,13.755,0,0,1-1.28,1.783c-.265.314.193.767.461.449Z" transform="translate(-519.018 -347.932)" fill="#6c63ff"/>
    <path id="Path_2207" data-name="Path 2207" d="M606.368,541.362a1.519,1.519,0,0,1,.152.183l7.128-.174.832-1.519,2.457.955-1.211,2.833a1.15,1.15,0,0,1-1.2.69l-8.053-.973a1.509,1.509,0,1,1-.109-1.995Z" transform="translate(-538.04 -461.24)" fill="#ffb7b7"/>
    <path id="Path_2208" data-name="Path 2208" d="M508.391,664.489h-2.344l-1.115-9.04h3.459Z" transform="translate(-416.827 -541.081)" fill="#ffb7b7"/>
    <path id="Path_2209" data-name="Path 2209" d="M719.427,795.236H711.87v-.1a2.941,2.941,0,0,1,2.941-2.941h4.616Z" transform="translate(-627.266 -669.556)" fill="#2f2e41"/>
    <path id="Path_2210" data-name="Path 2210" d="M392.6,661.2l-2.155-.921,2.526-8.751,3.181,1.359Z" transform="translate(-322.314 -537.845)" fill="#ffb7b7"/>
    <path id="Path_2211" data-name="Path 2211" d="M594.951,786.691,588,783.722l.038-.088a2.942,2.942,0,0,1,3.86-1.549h0l4.244,1.813Z" transform="translate(-525.011 -661.011)" fill="#2f2e41"/>
    <path id="Path_2212" data-name="Path 2212" d="M458.666,468.8l-.17,2.746,4.954.53,5.183.555-1.526-4.17Z" transform="translate(-378.494 -386.718)" fill="#ffb7b7"/>
    <path id="Path_2213" data-name="Path 2213" d="M675.5,500.672l-1.924-13.416,3.336-1.093.98-1.344,4.768.282.7,1.568,2.542,1.2-.391,7.256.285,6.069Z" transform="translate(-595.651 -415.811)" fill="#2f2e41"/>
    <path id="Path_2214" data-name="Path 2214" d="M661.609,508.74l-3.393-1.357.014-.06c.015-.061,1.459-6.1,1.65-7.065a1.691,1.691,0,0,1,.96-1.3l.023-.008,1.343.409.59,4.633Z" transform="translate(-582.974 -427.474)" fill="#2f2e41"/>
    <path id="Path_2215" data-name="Path 2215" d="M618.429,607.294l-4.516-.926,7.219-19.918,2.471-6.794s1.567-5.447,2.275-7.555l.427-2.828,10.114,1.119s2.825,4.148,1.967,10.91l.388,25.414-4.516.232-3.783-25.632-6.639,14.051s-2.093,6-3.59,7.3Z" transform="translate(-546.401 -485.526)" fill="#2f2e41"/>
    <path id="Path_2216" data-name="Path 2216" d="M712.721,542.642a1.512,1.512,0,0,1,.238.013l4.718-5.345-.549-1.643,2.371-1.152,1.254,2.814a1.15,1.15,0,0,1-.307,1.346l-6.189,5.244a1.509,1.509,0,1,1-1.537-1.276Z" transform="translate(-626.761 -456.835)" fill="#ffb7b7"/>
    <path id="Path_2217" data-name="Path 2217" d="M736.578,511.231l-1.968-4.63.768-3.225.827-1.045a.477.477,0,0,1,.383,0c.305.123.565.5.772,1.118l1.845,5.254Z" transform="translate(-646.038 -430.235)" fill="#2f2e41"/>
    <path id="Path_2218" data-name="Path 2218" d="M687.367,436.347v-3.49a4.677,4.677,0,1,1,9.354,0v3.49a.629.629,0,0,1-.628.628H688A.629.629,0,0,1,687.367,436.347Z" transform="translate(-607.038 -369.054)" fill="#2f2e41"/>
    <circle id="Ellipse_107" data-name="Ellipse 107" cx="3.429" cy="3.429" r="3.429" transform="translate(80.616 60.982)" fill="#ffb7b7"/>
    <path id="Path_2219" data-name="Path 2219" d="M681.026,439.08a3.7,3.7,0,0,1,3.7-3.7h.7a3.7,3.7,0,0,1,3.7,3.7v.07h-1.475l-.5-1.409-.1,1.409h-.762l-.254-.711-.051.711h-4.951Z" transform="translate(-601.804 -374.998)" fill="#2f2e41"/>
    <path id="Path_2220" data-name="Path 2220" d="M706.157,450.64a.619.619,0,0,1-.049-.657c.74-1.407,1.776-4.007.4-5.61l-.1-.115H710.4v5.992l-3.626.64a.642.642,0,0,1-.111.01.626.626,0,0,1-.507-.259Z" transform="translate(-622.45 -382.327)" fill="#2f2e41"/>
    <path id="Path_2221" data-name="Path 2221" d="M212.9,657.29l2.118.757,3.928-7.809-3.126-1.117Z" transform="translate(-175.755 -535.857)" fill="#9f616a"/>
    <path id="Path_2222" data-name="Path 2222" d="M432.6,782.944l.981-2.745,4.171,1.491a2.826,2.826,0,0,1,1.708,3.608l-.031.086Z" transform="translate(-396.727 -659.65)" fill="#2f2e41"/>
    <path id="Path_2223" data-name="Path 2223" d="M291.834,666.9h2.249l1.07-8.675h-3.32Z" transform="translate(-240.912 -543.373)" fill="#9f616a"/>
    <path id="Path_2224" data-name="Path 2224" d="M515.548,793.065h4.43a2.823,2.823,0,0,1,2.823,2.823v.092h-7.252Z" transform="translate(-465.2 -670.271)" fill="#2f2e41"/>
    <path id="Path_2225" data-name="Path 2225" d="M489.459,470.485l.978-1.933s3.644.913,3.975,3.025Z" transform="translate(-443.663 -402.381)" fill="#f1f1f1"/>
    <path id="Path_2226" data-name="Path 2226" d="M218.5,515.224l2.66,14.844-7.063,12.491,4.22,1.651,7.155-12.108.917-3.3.55,17.245,3.806-.116,1.745-16.1-2.8-14.97Z" transform="translate(-176.736 -425.02)" fill="#2f2e41"/>
    <path id="Path_2227" data-name="Path 2227" d="M464.351,499.78a24.552,24.552,0,0,1-6.445-.759l-.09-.019,2.036-9.437.092-8.705a9.941,9.941,0,0,1,2.765-6.66,1.587,1.587,0,0,1,.844-1.037,2.517,2.517,0,0,1,1.841.092l2.97,1.114.014.041c.036.106,3.948,12.949,3.948,12.949s-.237,11.222-.319,11.59C472.007,498.949,466.522,499.78,464.351,499.78Z" transform="translate(-417.542 -406.067)" fill="#3f3d56"/>
    <circle id="Ellipse_108" data-name="Ellipse 108" cx="4.015" cy="4.015" r="4.015" transform="translate(45.798 57.532)" fill="#9f616a"/>
    <path id="Path_2228" data-name="Path 2228" d="M259.823,432.715l7.024,9.8,1.037-4.576Z" transform="translate(-214.487 -357.211)" opacity="0.2"/>
    <path id="Path_2229" data-name="Path 2229" d="M572.184,545.6a1.723,1.723,0,0,1-2.587-.536l-6.045.968,1.31-2.9,5.54-.474a1.732,1.732,0,0,1,1.782,2.942Z" transform="translate(-504.827 -463.429)" fill="#9f616a"/>
    <path id="Path_2230" data-name="Path 2230" d="M345.842,454.83l2.172-.213.6,3.03-2.733.048Z" transform="translate(-285.497 -375.291)" fill="#f1f1f1"/>
    <path id="Path_2231" data-name="Path 2231" d="M506.9,505.22l-10.638-.947-5.372-8.543-.017-.076a2.941,2.941,0,0,1,5.491-1.969l3.153,6.151,6.364.962Z" transform="translate(-444.775 -421.808)" fill="#3f3d56"/>
    <path id="Path_2232" data-name="Path 2232" d="M488.415,418.808l3.332.12a9.631,9.631,0,0,0,.827-2.639,1.241,1.241,0,0,1,1.295-1c.249.024.878-.442,1.527-.994a2.448,2.448,0,0,0-.185-3.9q-.056-.036-.109-.066a5.93,5.93,0,0,0-2.831-.651,5.3,5.3,0,0,0-2.581.52,4.7,4.7,0,0,0-2.212,3.987A11.6,11.6,0,0,0,488.5,418.8" transform="translate(-442.023 -353.775)" fill="#2f2e41"/>
    <path id="Path_2233" data-name="Path 2233" d="M356.924,809.021H227.174a.174.174,0,0,1,0-.349H356.994a.174.174,0,0,1,.174.174C357.168,808.943,357.021,809.021,356.924,809.021Z" transform="translate(-227 -683.155)" fill="#cbcbcb"/>
  </g>
</svg>
