<svg xmlns="http://www.w3.org/2000/svg" width="38.176" height="27.178" viewBox="0 0 38.176 27.178">
  <path id="Path_647" data-name="Path 647" d="M607.912,309.476c1.987,1.441,3.877,2.977,5.716,4.563.93.782,1.835,1.589,2.733,2.4s1.8,1.624,2.672,2.463l-1.847-.055c2.252-2.2,4.582-4.318,6.893-6.455,2.336-2.109,4.684-4.206,7.1-6.231q3.584-3.076,7.3-6c2.469-1.962,4.995-3.861,7.611-5.661-2.052,2.424-4.193,4.748-6.392,7.009s-4.423,4.494-6.7,6.666c-2.256,2.2-4.576,4.326-6.907,6.44-2.358,2.086-4.695,4.194-7.111,6.215l-1.013.848-.835-.9q-1.233-1.334-2.412-2.719c-.8-.913-1.587-1.833-2.351-2.778C610.814,313.409,609.314,311.49,607.912,309.476Z" transform="translate(-607.912 -294.5)" fill="#fff"/>
</svg>
