<svg xmlns="http://www.w3.org/2000/svg" width="58.113" height="42.139" viewBox="0 0 58.113 42.139">
  <g id="Group_3835" data-name="Group 3835" transform="translate(-89.856 -559)">
    <path id="Path_835" data-name="Path 835" d="M-423.638,1353.5c1.072.6,2.141,1.213,3.218,1.808,1.245.687,1.432,1.189.821,2.474q-3.855,8.1-7.732,16.192c-.621,1.3-1.332,1.525-2.592.852-.971-.518-1.929-1.06-2.886-1.6-.94-.534-1.063-.95-.549-1.951.918-1.791,1.867-3.565,2.778-5.359q2.969-5.847,5.915-11.706c.121-.239.255-.47.382-.705Z" transform="translate(523.514 -794.5)" fill="#f8f8f8"/>
    <path id="Path_836" data-name="Path 836" d="M-147.435,1372.7c-1.127,1.351-2.741,1.787-4.323,2.242-.726.209-1.237-.286-1.555-.885q-1.092-2.056-2.116-4.148-2.893-5.873-5.766-11.756c-.8-1.638-.591-2.187,1.039-3.056.885-.471,1.705-1.063,2.555-1.6h.807c.62,1.034,1.307,2.033,1.847,3.108,2.527,5.031,5.013,10.084,7.513,15.128Z" transform="translate(295.403 -794.5)" fill="#f8f8f8"/>
    <path id="Path_837" data-name="Path 837" d="M-354.513,1401.581a12.34,12.34,0,0,1,2.049.911c2.358,1.6,4.669,3.261,7,4.9a14.589,14.589,0,0,0,1.344.885,1.562,1.562,0,0,0,2.317-.474,1.646,1.646,0,0,0-.322-2.433c-1.324-1.053-2.705-2.034-4.072-3.032-1.909-1.394-3.827-2.776-5.741-4.163-.065-.047-.164-.085-.187-.148-.157-.449-.3-.9-.444-1.358.455,0,1.028-.175,1.347.035,1.975,1.3,3.9,2.677,5.828,4.038,1.581,1.114,3.119,2.292,4.737,3.348a2.194,2.194,0,0,0,3.469-1.647,2.469,2.469,0,0,0-1.021-2.091q-2.921-2.6-5.872-5.169-4.528-3.949-9.07-7.884c-2.378-2.067-5.06-1.324-6.016,1.69a6.073,6.073,0,0,1-4.373,4.513,4.148,4.148,0,0,1-2.967-.392,1.61,1.61,0,0,1-.717-1.969c.638-2.573,1.322-5.135,1.991-7.7.053-.2.128-.4.22-.69H-369.9a1.922,1.922,0,0,1,1.971-2.374,23.672,23.672,0,0,0,3.454.032c2.246-.337,4.48-.795,6.686-1.334a15.543,15.543,0,0,1,7.025-.112c2.1.446,4.185.946,6.282,1.4a2.83,2.83,0,0,1,2.111,1.663c2.121,4.457,4.287,8.892,6.444,13.331a1.989,1.989,0,0,1,.048,1.981,4.05,4.05,0,0,0,.018,3.356,5.8,5.8,0,0,1,.444,2.1,3.313,3.313,0,0,1-2.449,3.08,2.756,2.756,0,0,0-1.99,2.087,3.333,3.333,0,0,1-3.174,2.429,1.447,1.447,0,0,0-1.365.969c-.909,2.11-2.073,2.707-4.307,2.117a3.582,3.582,0,0,0-2.963.545,4.355,4.355,0,0,1-3.47.8c-1.1-.255-1.965.538-2.7,1.325a1.389,1.389,0,0,1-2.323-.154c-.443-.608-.9-1.2-1.32-1.83a.654.654,0,0,0-.939-.28,5.594,5.594,0,0,1-1.395.373,1.777,1.777,0,0,1-2.283-1.477c-.185-.64-.285-1.305-.428-1.979-1.173.128-2.4.747-3.463-.179a4.591,4.591,0,0,1-1.176-3.043,16.9,16.9,0,0,1-2.977-.423,2.309,2.309,0,0,1-.93-3.922c1.61-1.817,1.643-3.565-.081-5.444a3.106,3.106,0,0,1-.886-2.619c.023-.2.158-.558.247-.56a.928.928,0,0,1,.656.258c.667.772,1.283,1.589,1.937,2.373a4.332,4.332,0,0,0,3.072,1.711,2.225,2.225,0,0,1,2.064,2.205c.118,1.569.22,1.682,1.743,2.177a3.644,3.644,0,0,1,2.254,2.055,2.793,2.793,0,0,0,1.922,1.681,6.346,6.346,0,0,1,3.132,2.549,14.9,14.9,0,0,0,4.148,3.276,1.542,1.542,0,0,0,2.054-.257,1.151,1.151,0,0,0,.2-.963,2.184,2.184,0,0,0-.708-.94c-1.035-.856-2.138-1.631-3.147-2.515a7.063,7.063,0,0,1-.978-1.428,2.2,2.2,0,0,1,2.1.315q3.181,2.27,6.414,4.469a1.7,1.7,0,0,0,2.839-.855,1.722,1.722,0,0,0-.736-2.109c-.927-.732-1.91-1.393-2.864-2.09-1.237-.9-2.456-1.831-3.71-2.71a2.956,2.956,0,0,1-1.268-1.954Z" transform="translate(475.216 -815.558)" fill="#f8f8f8"/>
  </g>
</svg>
